<svg width="45" height="45" viewBox="0 0 45 45" fill="none" xmlns="http://www.w3.org/2000/svg">
<rect width="45" height="45" rx="12" fill="url(#paint0_linear_11_427)"/>
<path d="M31.5 15.5C31.5 17.1569 27.4706 18.5 22.5 18.5C17.5294 18.5 13.5 17.1569 13.5 15.5M31.5 15.5C31.5 13.8431 27.4706 12.5 22.5 12.5C17.5294 12.5 13.5 13.8431 13.5 15.5M31.5 15.5V29.5C31.5 30.2956 30.5518 31.0587 28.864 31.6213C27.1761 32.1839 24.8869 32.5 22.5 32.5C20.1131 32.5 17.8239 32.1839 16.136 31.6213C14.4482 31.0587 13.5 30.2956 13.5 29.5V15.5M13.5 22.5C13.5 23.2956 14.4482 24.0587 16.136 24.6213C17.8239 25.1839 20.1131 25.5 22.5 25.5C24.8869 25.5 27.1761 25.1839 28.864 24.6213C30.5518 24.0587 31.5 23.2956 31.5 22.5" stroke="white" stroke-width="2" stroke-linecap="round" stroke-linejoin="round"/>
<defs>
<linearGradient id="paint0_linear_11_427" x1="22.5" y1="0" x2="22.5" y2="45" gradientUnits="userSpaceOnUse">
<stop stop-color="#27272A"/>
<stop offset="1" stop-color="#18181B"/>
</linearGradient>
</defs>
</svg>
