<svg width="45" height="45" viewBox="0 0 45 45" fill="none" xmlns="http://www.w3.org/2000/svg">
<rect width="45" height="45" rx="12" fill="url(#paint0_linear_2_318)"/>
<path d="M17.5 21.5V25.5C17.5 26.0304 17.7107 26.5391 18.0858 26.9142C18.4609 27.2893 18.9696 27.5 19.5 27.5H23.5M15.5 13.5H19.5C20.6046 13.5 21.5 14.3954 21.5 15.5V19.5C21.5 20.6046 20.6046 21.5 19.5 21.5H15.5C14.3954 21.5 13.5 20.6046 13.5 19.5V15.5C13.5 14.3954 14.3954 13.5 15.5 13.5ZM25.5 23.5H29.5C30.6046 23.5 31.5 24.3954 31.5 25.5V29.5C31.5 30.6046 30.6046 31.5 29.5 31.5H25.5C24.3954 31.5 23.5 30.6046 23.5 29.5V25.5C23.5 24.3954 24.3954 23.5 25.5 23.5Z" stroke="black" stroke-width="2" stroke-linecap="round" stroke-linejoin="round"/>
<defs>
<linearGradient id="paint0_linear_2_318" x1="22.5" y1="0" x2="22.5" y2="45" gradientUnits="userSpaceOnUse">
<stop stop-color="#E4E4E7"/>
<stop offset="1" stop-color="#D4D4D8"/>
</linearGradient>
</defs>
</svg>
