<svg width="45" height="45" viewBox="0 0 45 45" fill="none" xmlns="http://www.w3.org/2000/svg">
<rect width="45" height="45" rx="12" fill="url(#paint0_linear_11_417)"/>
<path d="M18.8 20.5001C18.6711 20.5071 18.5427 20.4783 18.4292 20.417C18.3156 20.3556 18.2212 20.264 18.1564 20.1524C18.0916 20.0407 18.0589 19.9133 18.0621 19.7842C18.0652 19.6552 18.1039 19.5295 18.174 19.421L21.9 13.5001C21.9585 13.3946 22.0433 13.3061 22.1462 13.2431C22.249 13.1801 22.3663 13.1447 22.4869 13.1403C22.6074 13.136 22.727 13.1629 22.834 13.2184C22.9411 13.2739 23.032 13.3561 23.098 13.4571L26.8 19.4001C26.873 19.5048 26.9159 19.6276 26.9241 19.755C26.9323 19.8825 26.9055 20.0097 26.8466 20.123C26.7877 20.2363 26.6989 20.3313 26.5899 20.3978C26.4808 20.4642 26.3557 20.4996 26.228 20.5001H18.8Z" stroke="white" stroke-width="2" stroke-linecap="round" stroke-linejoin="round"/>
<path d="M19.5 24.5H14.5C13.9477 24.5 13.5 24.9478 13.5 25.5V30.5001C13.5 31.0523 13.9477 31.5001 14.5 31.5001H19.5C20.0523 31.5001 20.5 31.0523 20.5 30.5001V25.5C20.5 24.9478 20.0523 24.5 19.5 24.5Z" stroke="white" stroke-width="2" stroke-linecap="round" stroke-linejoin="round"/>
<path d="M28 31.5001C29.933 31.5001 31.5 29.933 31.5 28.0001C31.5 26.0671 29.933 24.5 28 24.5C26.067 24.5 24.5 26.0671 24.5 28.0001C24.5 29.933 26.067 31.5001 28 31.5001Z" stroke="white" stroke-width="2" stroke-linecap="round" stroke-linejoin="round"/>
<defs>
<linearGradient id="paint0_linear_11_417" x1="22.5" y1="0" x2="22.5" y2="45" gradientUnits="userSpaceOnUse">
<stop stop-color="#27272A"/>
<stop offset="1" stop-color="#18181B"/>
</linearGradient>
</defs>
</svg>
