<svg width="18" height="18" viewBox="0 0 18 18" fill="none" xmlns="http://www.w3.org/2000/svg">
<path d="M6.75 16.5V13.5C6.6975 13.035 6.735 12.5625 6.8625 12.1125C6.99 11.6625 7.2075 11.2425 7.5 10.875C5.25 10.875 3 9.375 3 6.75C2.93885 5.81459 3.2039 4.88691 3.75 4.125C3.525 3.2625 3.525 2.3625 3.75 1.5C3.75 1.5 4.5 1.5 6 2.625C7.98 2.25 10.02 2.25 12 2.625C13.5 1.5 14.25 1.5 14.25 1.5C14.46 2.3625 14.46 3.2625 14.25 4.125C14.7975 4.89 15.06 5.8125 15 6.75C15 9.375 12.75 10.875 10.5 10.875C11.0849 11.6176 11.3543 12.5605 11.25 13.5V16.5M6.75 13.5C3.3675 15 3 12 1.5 12" stroke="#71717B" stroke-width="1.125" stroke-linecap="round" stroke-linejoin="round"/>
</svg>
